PathFileType  4	(X/Y/Z) C:\Users\antoi\Documents\MyRepositories\mobilecap\ResultsAnalysis
DataRate	CameraRate	NumFrames	NumMarkers	Units	OrigDataRate	OrigDataStartFrame	OrigNumFrames
100.0	100.0	7	51	mm	100.0	18	137
Frame#	Time	r_knee			r_shank_antsup			r_ankle			r_calc			r_5meta			r_toe			L_knee			L_shank_antsup			L_ankle			L_calc			L_5meta			L_toe			r_sh2			r_sh3			r_sh4			L_sh2			L_sh3			r_thigh1			r_thigh2			r_thigh3			r_thigh4			r_thigh5			L_thigh1			L_thigh2			L_thigh3			L_thigh4			r.ASIS			r.PSIS			L.ASIS			L.PSIS			C7			R_Shoulder			L_Shoulder			R_Sternum			L_Sternum			R_humerus			R_elbow_med			R_elbow_lat			R_forearm			R_wrist_radius			R_wrist_ulna			L_humerus			L_elbow_med			L_elbow_lat			L_forearm			L_wrist_radius			L_wrist_ulna			R_HJC			L_HJC			R_HJC_reg			L_HJC_reg			
		X1	Y1	Z1	X2	Y2	Z2	X3	Y3	Z3	X4	Y4	Z4	X5	Y5	Z5	X6	Y6	Z6	X7	Y7	Z7	X8	Y8	Z8	X9	Y9	Z9	X10	Y10	Z10	X11	Y11	Z11	X12	Y12	Z12	X13	Y13	Z13	X14	Y14	Z14	X15	Y15	Z15	X16	Y16	Z16	X17	Y17	Z17	X18	Y18	Z18	X19	Y19	Z19	X20	Y20	Z20	X21	Y21	Z21	X22	Y22	Z22	X23	Y23	Z23	X24	Y24	Z24	X25	Y25	Z25	X26	Y26	Z26	X27	Y27	Z27	X28	Y28	Z28	X29	Y29	Z29	X30	Y30	Z30	X31	Y31	Z31	X32	Y32	Z32	X33	Y33	Z33	X34	Y34	Z34	X35	Y35	Z35	X36	Y36	Z36	X37	Y37	Z37	X38	Y38	Z38	X39	Y39	Z39	X40	Y40	Z40	X41	Y41	Z41	X42	Y42	Z42	X43	Y43	Z43	X44	Y44	Z44	X45	Y45	Z45	X46	Y46	Z46	X47	Y47	Z47	X48	Y48	Z48	X49	Y49	Z49	X50	Y50	Z50	X51	Y51	Z51	

18	0.17000000	138.16020	541.37685	-38.52222	187.79163	453.85867	-55.15186	171.13203	115.76651	-94.66947	93.57298	74.41940	-143.71715	292.43627	46.53746	-62.20310	347.44717	81.71447	-125.91021	45.96639	516.89871	-369.17639	-9.71455	452.56665	-382.89607	-281.39807	281.35791	-300.17664	-352.10333	328.53232	-234.46419	-308.38741	142.67107	-326.77917	-249.99022	102.04787	-272.56249	192.40865	343.19959	-36.11239	127.11854	458.40816	-10.94694	111.88918	342.98143	-8.57647	-57.52375	525.77839	-362.54805	-148.82391	446.32168	-345.08238	149.11384	874.67410	-19.95366	171.66823	766.76864	-22.13096	122.02100	731.32765	7.52976	40.65346	849.09826	0.36051	67.26757	736.92629	-6.77260	97.06038	809.87120	-375.58336	123.23732	672.06435	-370.67023	-9.97994	789.37885	-380.76039	10.27958	654.58933	-379.57223	109.49379	1083.82326	-67.67188	-76.72870	1065.19965	-123.17784	92.71746	1052.82472	-319.13564	-87.83493	1056.98206	-232.40405	-7.43513	1613.92637	-235.62362	54.65266	1558.10927	-59.97866	32.77323	1522.65888	-396.48529	101.92653	1514.19355	-197.34840	98.16144	1504.35173	-251.94115	27.02497	1402.35216	15.67274	-102.00976	1227.31068	-27.79527	-89.74300	1243.75728	54.09479	-77.41243	1073.15470	90.53172	-62.09950	974.86099	86.93174	-102.19272	993.03708	110.62886	29.75602	1399.07336	-473.72710	25.34341	1152.48435	-431.27158	36.64299	1174.83258	-511.93332	105.03380	1144.27306	-533.54608	246.48939	1035.00815	-543.72408	217.98558	1006.60733	-555.25213	44.13824	956.48129	-70.44494	23.56979	938.47739	-275.59334	63.57671	984.60437	-91.46695	46.67307	972.09743	-257.73169	
19	0.18000000	143.83160	541.85331	-38.55564	192.06811	453.64558	-54.64674	171.76286	115.91106	-95.21925	93.77664	74.48352	-143.84072	292.53450	46.53828	-62.24277	347.72775	80.67631	-126.42217	72.85837	521.15576	-369.75656	18.22909	456.67849	-382.97491	-253.41022	284.77338	-300.18564	-326.26444	329.56517	-235.31959	-275.87148	145.42796	-326.94117	-217.10450	106.66661	-271.96822	194.71055	342.78031	-36.04500	130.57168	458.82263	-11.53938	113.76390	343.64128	-9.99996	-29.38831	529.92770	-362.45398	-120.91027	450.58843	-345.49561	159.79471	874.80261	-18.71303	180.64782	766.39187	-21.62470	130.35246	731.76805	7.92895	51.12628	850.85457	1.02125	75.75719	738.45027	-6.86498	114.70985	814.34133	-375.38514	144.76241	677.12901	-370.83474	8.26029	790.73120	-379.65526	32.52990	656.55790	-378.44297	122.71414	1085.56474	-67.26321	-63.73319	1067.43281	-121.75698	104.85564	1055.15985	-318.56981	-75.31157	1058.91987	-230.90037	6.31911	1615.76976	-237.32474	69.86625	1560.56369	-62.12252	44.62210	1523.44480	-398.31127	115.95756	1516.01323	-199.80231	111.46526	1505.80132	-254.23976	44.54922	1404.90876	14.35013	-83.90210	1228.57823	-25.66455	-69.72238	1245.33637	55.87168	-54.11002	1074.95441	92.27272	-37.25847	976.96114	88.58355	-77.01121	994.54957	112.82195	39.22376	1398.69323	-474.47191	32.01061	1152.76453	-427.92481	42.57906	1173.60312	-508.99353	110.24108	1141.73153	-530.99487	249.93805	1030.15705	-540.93296	220.81366	1002.06554	-551.84979	57.37099	958.36435	-69.79861	35.81052	940.66956	-274.86734	76.36855	987.12578	-90.61916	58.75265	974.17499	-256.68183	
20	0.19000000	149.31545	542.34282	-38.70602	196.16434	453.48192	-54.35467	172.42185	116.09548	-95.78045	94.00310	74.54805	-143.98301	292.62260	46.59550	-62.30272	348.00767	79.69829	-126.93986	99.15470	525.94551	-370.17961	45.91627	461.01530	-383.01783	-224.50133	286.53431	-300.31194	-299.88751	328.49630	-236.35981	-241.48323	146.47642	-327.08177	-182.01425	110.15880	-271.28058	196.97677	342.44383	-36.06116	133.98467	459.28161	-12.17240	115.70326	344.34666	-11.28998	-2.06277	533.99380	-362.33096	-93.25424	454.12950	-345.92482	170.21179	874.85183	-17.85106	189.51929	766.01231	-21.75909	138.67939	732.14216	7.82431	61.51519	852.46159	1.57213	84.21456	739.89764	-7.20703	132.14847	819.22032	-375.17579	165.97709	682.69722	-370.99313	26.31898	792.50744	-378.68684	54.59431	659.05145	-377.25579	135.73080	1087.12594	-66.76259	-50.90834	1069.59792	-120.27256	116.83293	1057.56783	-317.97042	-62.84926	1061.02660	-229.36485	19.96422	1617.53008	-239.17245	84.88380	1563.00923	-64.39318	56.29070	1524.05737	-400.25168	129.87159	1517.77175	-202.34383	124.61606	1507.16317	-256.64199	61.85496	1407.50770	12.92764	-65.60034	1229.76466	-23.58163	-49.52051	1246.86409	57.54191	-30.47964	1076.79986	93.89851	-12.03560	979.14987	90.11919	-51.29853	996.14033	114.87428	48.45950	1398.11865	-475.23122	38.63179	1152.99822	-424.42465	48.34125	1172.26199	-505.85844	115.16136	1138.96347	-528.32733	252.86572	1024.82374	-538.03887	223.06668	997.14898	-548.29904	70.36172	960.09270	-69.21586	47.84023	942.95565	-274.22681	88.90410	989.36326	-89.92257	70.74272	976.32808	-255.84097	
21	0.20000000	154.76294	542.86027	-38.96921	200.25327	453.39261	-54.40283	173.07376	116.31008	-96.31004	94.23114	74.61034	-144.13081	292.69748	46.69981	-62.38578	348.27184	78.81786	-127.44597	124.88626	531.06047	-370.49303	73.33183	465.31396	-383.10169	-194.78108	286.63391	-300.56316	-272.74704	325.45899	-237.43683	-205.77410	145.99618	-327.28077	-145.24628	112.50669	-270.76366	199.44695	342.22263	-36.26459	137.68555	459.82662	-12.77917	118.02265	345.13305	-12.27690	24.42136	537.70274	-362.36647	-65.84577	456.67737	-346.43408	180.48377	874.89261	-17.36612	198.39856	765.71182	-22.43457	147.11810	732.50984	7.27193	71.88146	853.96331	2.04502	92.76697	741.28662	-7.70516	149.33094	824.38979	-374.96193	186.86448	688.68021	-371.11615	44.16285	794.59928	-377.90777	76.41203	661.97629	-376.21049	148.52674	1088.57140	-66.09612	-38.24819	1071.68328	-118.82110	128.76046	1060.02826	-317.27793	-50.42302	1063.26635	-227.90767	33.51106	1619.19315	-241.15345	99.73331	1565.45815	-66.77945	67.80660	1524.50153	-402.27760	143.63285	1519.44693	-204.93554	137.61831	1508.43238	-259.11691	78.99217	1410.18281	11.43032	-47.08785	1230.91689	-21.57315	-29.15477	1248.39561	59.08162	-6.56631	1078.74965	95.38458	13.50148	981.47797	91.50200	-25.13516	997.86816	116.77421	57.51319	1397.36472	-475.95076	45.21261	1153.19912	-420.77054	53.94664	1170.85621	-502.53624	119.79480	1136.00683	-525.54970	255.26354	1019.03652	-535.07772	224.75507	991.89763	-544.59883	83.09025	961.70718	-68.66016	59.78163	945.31268	-273.64461	101.23598	991.33975	-89.29409	82.72555	978.54341	-255.13941	
22	0.21000000	160.27326	543.38994	-39.32135	204.45154	453.37528	-54.81969	173.68197	116.53493	-96.76575	94.43663	74.66824	-144.26583	292.75829	46.82802	-62.48521	348.51084	78.06706	-127.91027	150.10185	536.28357	-370.75432	100.46238	469.32868	-383.29875	-164.37139	285.16643	-300.91409	-244.77759	320.53338	-238.41938	-169.05258	144.25124	-327.65934	-107.18427	113.82141	-270.64333	202.24501	342.11506	-36.70451	141.85169	460.45754	-13.29494	120.88853	345.99907	-12.86775	50.07890	540.81666	-362.73993	-38.66606	458.05640	-347.08763	190.72506	874.95556	-17.23810	207.34128	765.50998	-23.50734	155.73353	732.89895	6.40706	82.25870	855.38896	2.49165	101.47840	742.62369	-8.23801	166.23663	829.71968	-374.74805	207.41811	694.96335	-371.17055	61.79986	796.89692	-377.36987	97.92840	665.23262	-375.53559	161.11646	1089.93858	-65.21839	-25.73918	1073.67269	-117.48628	140.73714	1062.52013	-316.44986	-38.02214	1065.57539	-226.62017	46.97260	1620.73315	-243.25572	114.44818	1567.91336	-69.27533	79.20045	1524.77173	-404.35676	157.20108	1521.00145	-207.54970	150.48832	1509.58532	-261.63561	96.04246	1412.95922	9.88513	-28.37225	1232.07247	-19.66344	-8.66079	1249.99096	60.48087	17.58371	1080.85898	96.71695	39.29076	983.99448	92.71519	1.38059	999.78841	118.53004	66.44258	1396.44343	-476.58482	51.77173	1153.37376	-416.97349	59.41492	1169.43074	-499.05297	124.15972	1132.90160	-522.66526	257.12206	1012.83340	-532.08349	225.89716	986.35093	-540.75040	95.56305	963.22826	-68.11085	71.74489	947.70756	-273.10632	113.42487	993.09918	-88.65095	94.75852	980.79347	-254.49320	
23	0.22000000	165.88746	543.90283	-39.71043	208.80148	453.40457	-55.52487	174.22155	116.74838	-97.11574	94.59062	74.72135	-144.36688	292.80580	46.95221	-62.58747	348.72156	77.46477	-128.30004	174.83928	541.42501	-371.01225	127.28464	472.88811	-383.65618	-133.37068	282.28084	-301.32894	-216.00835	313.76753	-239.23266	-131.40931	141.53413	-328.34819	-68.08558	114.27817	-271.06324	205.36922	342.09329	-37.35849	146.49081	461.14183	-13.66366	124.29684	346.91513	-13.05190	74.95682	543.18317	-363.56338	-11.69911	458.21490	-347.92567	201.02146	875.03099	-17.42296	216.34887	765.37478	-24.80635	164.53466	733.30880	5.40960	92.66438	856.75253	2.96815	110.35420	743.90494	-8.67987	182.87095	835.08492	-374.53406	227.62984	701.41257	-371.13646	79.27332	799.30815	-377.11754	119.10671	668.72492	-375.41496	173.54159	1091.23549	-64.12465	-13.36291	1075.54782	-116.32793	152.81938	1065.00678	-315.47280	-25.64768	1067.87147	-225.56054	60.36334	1622.11801	-245.47030	129.06645	1570.36510	-71.88013	90.50317	1524.84915	-406.45644	170.54842	1522.39501	-210.17477	163.25225	1510.58462	-264.17547	113.09065	1415.84264	8.30841	-9.48608	1233.25894	-17.87000	11.90944	1251.70403	61.74410	41.92350	1083.17313	97.89274	65.28586	986.74612	93.76201	28.14826	1001.94753	120.15758	75.30600	1395.36152	-477.10457	58.34382	1153.52052	-413.05685	64.77744	1168.01746	-495.44511	128.30065	1129.68355	-519.67197	258.43682	1006.26241	-529.07766	226.52230	980.54523	-536.75740	107.80897	964.65631	-67.56226	83.80070	950.09093	-272.60651	125.52228	994.69047	-87.92878	106.86417	983.03052	-253.82581	
24	0.23000000	171.60301	544.37143	-40.06355	213.27526	453.43943	-56.36096	174.68450	116.93450	-97.34844	94.66209	74.77189	-144.41486	292.84140	47.04993	-62.67685	348.90373	77.01099	-128.59191	199.10705	546.34803	-371.29682	153.76312	475.92205	-384.18505	-101.83501	278.13202	-301.78803	-186.47971	305.20810	-239.87241	-92.81555	138.11029	-329.45430	-28.10863	114.06630	-272.08310	208.72428	342.11467	-38.14404	151.47440	461.82906	-13.85144	128.10196	347.83702	-12.89494	99.11828	544.75240	-364.84744	15.06397	457.21710	-348.95719	211.40483	875.07578	-17.84364	225.38748	765.24239	-26.14955	173.48109	733.71762	4.46266	103.10732	858.05349	3.51838	119.35246	745.11617	-8.92777	199.25712	840.37541	-374.31639	247.48035	707.88684	-371.01487	96.63614	801.76441	-377.18246	139.93581	672.36572	-375.92337	185.85280	1092.44573	-62.85523	-1.09882	1077.29017	-115.37615	165.01267	1067.42989	-314.36661	-13.30728	1070.06635	-224.74772	73.69706	1623.31610	-247.79348	143.62952	1572.78931	-74.59877	101.74443	1524.70343	-408.54941	183.67886	1523.59633	-212.81726	175.93954	1511.38885	-266.72477	130.19797	1418.81252	6.69515	9.52263	1234.49345	-16.19683	32.49880	1253.57098	62.88784	66.40713	1085.72187	98.91964	91.46446	989.77588	94.66071	55.07930	1004.37742	121.66866	84.15586	1394.11908	-477.50220	64.97082	1153.62976	-409.05595	70.08433	1166.62758	-491.74989	132.28624	1126.37892	-516.56406	259.21677	999.37652	-526.05826	226.66762	974.51343	-532.62366	119.86999	965.97659	-67.02022	95.96945	952.39761	-272.14471	137.55873	996.15445	-87.09686	119.03012	985.18943	-253.08626	
